<?xml version="1.0" encoding="iso-8859-1"?>
<!-- Generator: Adobe Illustrator 23.0.3, SVG Export Plug-In . SVG Version: 6.00 Build 0)  -->
<svg version="1.1" xmlns="http://www.w3.org/2000/svg" xmlns:xlink="http://www.w3.org/1999/xlink" x="0px" y="0px"
	 viewBox="0 0 50 50" style="enable-background:new 0 0 50 50;" xml:space="preserve">
<g id="Layer_10" style="display:none;">
</g>
<g id="filled">
</g>
<g id="outlined">
</g>
<g id="rounded">
</g>
<g id="two_x5F_tone">
</g>
<g id="sharp">
</g>
<g id="win10">
</g>
<g id="ios_x5F_out">
</g>
<g id="ios_x5F_filled">
	<path d="M13,10v1h19.5c3.59,0,6.5,2.91,6.5,6.5v10c0,1.933-1.567,3.5-3.5,3.5h-13c-1.933,0-3.5-1.567-3.5-3.5V21h-4
		c-1.105,0-2,0.895-2,2v9c0,2.761,2.239,5,5,5h22c2.761,0,5-2.239,5-5V10c0-2.761-2.239-5-5-5H18C15.239,5,13,7.239,13,10z"/>
	<path d="M37,40v-1H17.5c-3.59,0-6.5-2.91-6.5-6.5v-10c0-1.933,1.567-3.5,3.5-3.5h13c1.933,0,3.5,1.567,3.5,3.5V29h4
		c1.105,0,2-0.895,2-2v-9c0-2.761-2.239-5-5-5H10c-2.761,0-5,2.239-5,5v22c0,2.761,2.239,5,5,5h22C34.761,45,37,42.761,37,40z"/>
</g>
<g id="color">
</g>
</svg>